<svg width="200" height="156" viewBox="0 0 200 156" fill="none" xmlns="http://www.w3.org/2000/svg">
<path d="M34.3778 126.991V112.772H39.3583C41.0835 112.772 42.3921 113.104 43.2841 113.768C44.176 114.426 44.622 115.392 44.622 116.668C44.622 117.365 44.4429 117.98 44.0848 118.514C43.7268 119.042 43.2287 119.429 42.5907 119.676C43.3199 119.859 43.8928 120.226 44.3095 120.78C44.7326 121.333 44.9442 122.01 44.9442 122.811C44.9442 124.178 44.508 125.213 43.6356 125.917C42.7632 126.62 41.5197 126.978 39.9052 126.991H34.3778ZM37.3075 120.799V124.637H39.8173C40.5074 124.637 41.0445 124.474 41.4286 124.149C41.8192 123.817 42.0145 123.361 42.0145 122.782C42.0145 121.48 41.3407 120.819 39.993 120.799H37.3075ZM37.3075 118.729H39.4755C40.9533 118.703 41.6923 118.114 41.6923 116.961C41.6923 116.317 41.5035 115.855 41.1259 115.575C40.7548 115.288 40.1656 115.145 39.3583 115.145H37.3075V118.729ZM52.229 127.186C50.6795 127.186 49.4165 126.711 48.4399 125.76C47.4699 124.81 46.9848 123.543 46.9848 121.961V121.688C46.9848 120.627 47.1899 119.68 47.6001 118.846C48.0102 118.006 48.5897 117.362 49.3384 116.913C50.0936 116.457 50.9529 116.229 51.9165 116.229C53.3618 116.229 54.4979 116.685 55.3247 117.596C56.158 118.508 56.5747 119.8 56.5747 121.473V122.626H49.8462C49.9373 123.316 50.2108 123.869 50.6665 124.286C51.1287 124.702 51.7114 124.911 52.4145 124.911C53.5018 124.911 54.3514 124.517 54.9634 123.729L56.3501 125.282C55.9269 125.881 55.354 126.349 54.6313 126.688C53.9087 127.02 53.1079 127.186 52.229 127.186ZM51.9067 118.514C51.3468 118.514 50.8911 118.703 50.5395 119.081C50.1945 119.458 49.9731 119.999 49.8755 120.702H53.8013V120.477C53.7882 119.852 53.619 119.37 53.2934 119.032C52.9679 118.687 52.5057 118.514 51.9067 118.514ZM64.7091 126.991C64.5789 126.737 64.4845 126.421 64.4259 126.043C63.7423 126.805 62.8536 127.186 61.7598 127.186C60.7247 127.186 59.8653 126.887 59.1817 126.288C58.5046 125.689 58.1661 124.933 58.1661 124.022C58.1661 122.902 58.5795 122.043 59.4063 121.444C60.2397 120.845 61.4408 120.542 63.0098 120.536H64.3087V119.93C64.3087 119.442 64.1817 119.051 63.9278 118.758C63.6804 118.465 63.2865 118.319 62.7462 118.319C62.2709 118.319 61.8966 118.433 61.6231 118.661C61.3562 118.889 61.2227 119.201 61.2227 119.598H58.4005C58.4005 118.986 58.5893 118.42 58.9669 117.899C59.3445 117.378 59.8783 116.971 60.5684 116.678C61.2585 116.379 62.0333 116.229 62.8927 116.229C64.1947 116.229 65.2266 116.558 65.9884 117.215C66.7566 117.866 67.1407 118.784 67.1407 119.969V124.549C67.1472 125.552 67.2872 126.31 67.5606 126.825V126.991H64.7091ZM62.3751 125.028C62.7917 125.028 63.1759 124.937 63.5274 124.754C63.879 124.566 64.1394 124.315 64.3087 124.002V122.186H63.254C61.8412 122.186 61.0893 122.674 60.9981 123.651L60.9884 123.817C60.9884 124.168 61.1121 124.458 61.3595 124.686C61.6069 124.914 61.9454 125.028 62.3751 125.028ZM76.0368 125.917C75.3402 126.763 74.3766 127.186 73.1462 127.186C72.0134 127.186 71.1475 126.861 70.5485 126.21C69.9561 125.558 69.6533 124.605 69.6403 123.348V116.424H72.4626V123.251C72.4626 124.351 72.9639 124.901 73.9665 124.901C74.9235 124.901 75.5811 124.569 75.9391 123.905V116.424H78.7712V126.991H76.1149L76.0368 125.917ZM84.679 113.827V116.424H86.4856V118.495H84.679V123.768C84.679 124.159 84.7539 124.439 84.9036 124.608C85.0533 124.777 85.3398 124.862 85.763 124.862C86.0755 124.862 86.3522 124.839 86.593 124.793V126.932C86.0397 127.101 85.47 127.186 84.8841 127.186C82.9049 127.186 81.8958 126.187 81.8567 124.188V118.495H80.3138V116.424H81.8567V113.827H84.679ZM92.4032 122.997L94.3563 116.424H97.3837L93.1356 128.631L92.9013 129.188C92.2697 130.568 91.2281 131.258 89.7763 131.258C89.3661 131.258 88.9494 131.196 88.5263 131.073V128.934L88.9559 128.944C89.4898 128.944 89.8869 128.862 90.1473 128.7C90.4143 128.537 90.6226 128.267 90.7723 127.889L91.1044 127.02L87.4032 116.424H90.4403L92.4032 122.997ZM107.393 121.981V126.991H104.463V112.772H110.01C111.078 112.772 112.015 112.967 112.822 113.358C113.636 113.749 114.261 114.305 114.697 115.028C115.134 115.744 115.352 116.561 115.352 117.479C115.352 118.872 114.873 119.973 113.916 120.78C112.966 121.581 111.647 121.981 109.961 121.981H107.393ZM107.393 119.608H110.01C110.785 119.608 111.374 119.426 111.777 119.061C112.188 118.696 112.393 118.176 112.393 117.499C112.393 116.802 112.188 116.239 111.777 115.809C111.367 115.379 110.801 115.158 110.078 115.145H107.393V119.608ZM117.011 121.61C117.011 120.562 117.213 119.627 117.617 118.807C118.021 117.987 118.6 117.352 119.355 116.903C120.117 116.454 120.999 116.229 122.002 116.229C123.427 116.229 124.59 116.665 125.488 117.538C126.393 118.41 126.897 119.595 127.002 121.092L127.021 121.815C127.021 123.436 126.569 124.738 125.664 125.721C124.759 126.698 123.545 127.186 122.021 127.186C120.498 127.186 119.28 126.698 118.369 125.721C117.464 124.745 117.011 123.417 117.011 121.737V121.61ZM119.834 121.815C119.834 122.818 120.022 123.586 120.4 124.12C120.778 124.647 121.318 124.911 122.021 124.911C122.705 124.911 123.239 124.65 123.623 124.129C124.007 123.602 124.199 122.762 124.199 121.61C124.199 120.627 124.007 119.865 123.623 119.325C123.239 118.784 122.698 118.514 122.002 118.514C121.312 118.514 120.778 118.784 120.4 119.325C120.022 119.859 119.834 120.689 119.834 121.815ZM135.097 119.071C134.713 119.019 134.374 118.993 134.081 118.993C133.014 118.993 132.314 119.354 131.982 120.077V126.991H129.159V116.424H131.825L131.904 117.684C132.47 116.714 133.255 116.229 134.257 116.229C134.57 116.229 134.863 116.271 135.136 116.356L135.097 119.071ZM140.731 113.827V116.424H142.538V118.495H140.731V123.768C140.731 124.159 140.806 124.439 140.956 124.608C141.106 124.777 141.392 124.862 141.815 124.862C142.128 124.862 142.405 124.839 142.645 124.793V126.932C142.092 127.101 141.522 127.186 140.936 127.186C138.957 127.186 137.948 126.187 137.909 124.188V118.495H136.366V116.424H137.909V113.827H140.731ZM150.633 126.991C150.503 126.737 150.409 126.421 150.35 126.043C149.666 126.805 148.778 127.186 147.684 127.186C146.649 127.186 145.79 126.887 145.106 126.288C144.429 125.689 144.09 124.933 144.09 124.022C144.09 122.902 144.504 122.043 145.331 121.444C146.164 120.845 147.365 120.542 148.934 120.536H150.233V119.93C150.233 119.442 150.106 119.051 149.852 118.758C149.605 118.465 149.211 118.319 148.67 118.319C148.195 118.319 147.821 118.433 147.547 118.661C147.28 118.889 147.147 119.201 147.147 119.598H144.325C144.325 118.986 144.513 118.42 144.891 117.899C145.269 117.378 145.803 116.971 146.493 116.678C147.183 116.379 147.958 116.229 148.817 116.229C150.119 116.229 151.151 116.558 151.913 117.215C152.681 117.866 153.065 118.784 153.065 119.969V124.549C153.071 125.552 153.211 126.31 153.485 126.825V126.991H150.633ZM148.299 125.028C148.716 125.028 149.1 124.937 149.452 124.754C149.803 124.566 150.064 124.315 150.233 124.002V122.186H149.178C147.765 122.186 147.013 122.674 146.922 123.651L146.913 123.817C146.913 124.168 147.036 124.458 147.284 124.686C147.531 124.914 147.87 125.028 148.299 125.028ZM158.611 126.991H155.779V111.991H158.611V126.991ZM161.492 125.604C161.492 125.155 161.642 124.79 161.941 124.51C162.247 124.23 162.628 124.09 163.084 124.09C163.546 124.09 163.927 124.23 164.226 124.51C164.532 124.79 164.685 125.155 164.685 125.604C164.685 126.047 164.536 126.408 164.236 126.688C163.937 126.961 163.552 127.098 163.084 127.098C162.621 127.098 162.241 126.961 161.941 126.688C161.642 126.408 161.492 126.047 161.492 125.604Z" fill="black"/>
<path fill-rule="evenodd" clip-rule="evenodd" d="M108.068 73.1802C114.011 76.6902 119.85 78.3861 122.591 77.6937C129.464 75.9577 130.096 51.3197 124.778 41.6066C119.46 31.8935 92.1215 27.6599 90.7435 46.9046C90.2653 53.5839 93.1274 59.5447 97.3561 64.4086L89.7737 99.0393H111.799L108.068 73.1802Z" fill="#3FC1C9"/>
<path fill-rule="evenodd" clip-rule="evenodd" d="M127.4 32.4935C127.4 37.2964 123.557 41.2199 118.72 41.4732C115.953 42.3099 112.398 42.9242 108.455 43.1832C108.837 44.5938 109.045 46.1964 109.045 48.0072C109.045 49.6063 108.865 51.3021 108.534 53.024C107.679 52.028 106.535 51.3781 105.375 51.3781C102.128 51.3781 99.8685 53.9951 99.8685 56.7737C99.8685 60.3001 101.946 62.8513 104.979 63.0553C102.248 68.1926 98.4703 72.0612 94.6966 72.0612C87.5286 72.0612 82.432 62.6704 82.432 52.5737C82.432 52.219 82.4392 51.8666 82.4534 51.5169C80.0268 53.1485 77.7784 55.2873 75.5137 57.4415L75.5137 57.4416C70.7017 62.0188 65.8166 66.6656 58.9946 66.6656C45.3451 66.6656 39.9243 39.6876 58.9946 39.6876C71.9638 39.6876 78.3433 41.5406 83.8412 44.2806C84.9256 41.2849 86.5791 38.7663 88.6011 37.0075C89.0873 36.4713 89.8324 35.9583 90.7936 35.4827C91.3826 35.1668 91.9921 34.9096 92.6185 34.7162C95.9342 33.5224 100.736 32.6804 106.1 32.4968C107.102 32.4626 108.086 32.4525 109.046 32.4652C109.061 27.5117 113.164 23.5008 118.223 23.5008C123.291 23.5008 127.4 27.527 127.4 32.4935Z" fill="black"/>
<rect x="-2.49646" y="-2.5" width="152.849" height="149.886" transform="matrix(1 0 -0.00141582 0.999999 25.7429 5.38882)" stroke="#1E2022" stroke-width="5"/>
<rect x="-1.49788" y="-1.5" width="150.849" height="147.886" transform="matrix(1 0 -0.00141582 0.999999 25.7443 5.38882)" stroke="#3FC1C9" stroke-width="3"/>
</svg>
