<svg width="200" height="156" viewBox="0 0 200 156" fill="none" xmlns="http://www.w3.org/2000/svg">
<path d="M31.117 127.991V113.061H36.3464C38.158 113.061 39.532 113.41 40.4685 114.107C41.405 114.797 41.8733 115.813 41.8733 117.152C41.8733 117.884 41.6853 118.53 41.3093 119.09C40.9334 119.644 40.4104 120.051 39.7405 120.311C40.5061 120.502 41.1077 120.888 41.5452 121.469C41.9895 122.05 42.2117 122.761 42.2117 123.602C42.2117 125.038 41.7537 126.125 40.8377 126.863C39.9216 127.601 38.616 127.977 36.9207 127.991H31.117ZM34.1931 121.49V125.52H36.8284C37.553 125.52 38.117 125.349 38.5203 125.007C38.9304 124.658 39.1355 124.18 39.1355 123.571C39.1355 122.204 38.428 121.51 37.0129 121.49H34.1931ZM34.1931 119.316H36.4695C38.0212 119.289 38.7971 118.67 38.7971 117.46C38.7971 116.783 38.5989 116.298 38.2024 116.004C37.8128 115.703 37.1941 115.553 36.3464 115.553H34.1931V119.316ZM49.8607 128.196C48.2337 128.196 46.9076 127.697 45.8822 126.699C44.8636 125.701 44.3543 124.371 44.3543 122.71V122.423C44.3543 121.309 44.5697 120.314 45.0003 119.439C45.431 118.557 46.0394 117.88 46.8255 117.409C47.6185 116.93 48.5208 116.691 49.5326 116.691C51.0501 116.691 52.243 117.169 53.1112 118.126C53.9862 119.084 54.4237 120.44 54.4237 122.197V123.407H47.3587C47.4544 124.132 47.7415 124.713 48.2201 125.15C48.7054 125.588 49.3172 125.807 50.0555 125.807C51.1971 125.807 52.0892 125.393 52.7318 124.566L54.1878 126.196C53.7435 126.825 53.1419 127.317 52.3831 127.673C51.6244 128.022 50.7835 128.196 49.8607 128.196ZM49.5223 119.09C48.9344 119.09 48.4559 119.289 48.0868 119.685C47.7244 120.082 47.492 120.649 47.3895 121.387H51.5116V121.151C51.4979 120.495 51.3202 119.989 50.9784 119.634C50.6366 119.272 50.1512 119.09 49.5223 119.09ZM62.9648 127.991C62.828 127.724 62.7289 127.393 62.6674 126.996C61.9496 127.796 61.0165 128.196 59.8681 128.196C58.7812 128.196 57.8788 127.881 57.1611 127.252C56.4501 126.624 56.0946 125.831 56.0946 124.874C56.0946 123.698 56.5287 122.795 57.3969 122.167C58.2719 121.538 59.5331 121.22 61.1806 121.213H62.5444V120.577C62.5444 120.064 62.4111 119.654 62.1445 119.347C61.8847 119.039 61.4711 118.885 60.9037 118.885C60.4047 118.885 60.0116 119.005 59.7245 119.244C59.4443 119.483 59.3041 119.812 59.3041 120.229H56.3407C56.3407 119.586 56.539 118.991 56.9355 118.444C57.332 117.897 57.8925 117.47 58.6171 117.163C59.3417 116.848 60.1552 116.691 61.0575 116.691C62.4247 116.691 63.5082 117.036 64.308 117.727C65.1147 118.41 65.518 119.374 65.518 120.618V125.427C65.5248 126.48 65.6718 127.276 65.9589 127.816V127.991H62.9648ZM60.5141 125.93C60.9516 125.93 61.3549 125.834 61.724 125.643C62.0932 125.444 62.3666 125.181 62.5444 124.853V122.946H61.4369C59.9535 122.946 59.164 123.459 59.0683 124.484L59.058 124.658C59.058 125.027 59.1879 125.332 59.4477 125.571C59.7074 125.81 60.0629 125.93 60.5141 125.93ZM74.8589 126.863C74.1274 127.751 73.1157 128.196 71.8237 128.196C70.6343 128.196 69.7251 127.854 69.0962 127.17C68.4741 126.487 68.1562 125.485 68.1426 124.166V116.896H71.106V124.064C71.106 125.219 71.6323 125.796 72.6851 125.796C73.6899 125.796 74.3804 125.448 74.7563 124.751V116.896H77.73V127.991H74.9409L74.8589 126.863ZM83.9332 114.168V116.896H85.8302V119.07H83.9332V124.607C83.9332 125.017 84.0118 125.311 84.169 125.489C84.3262 125.667 84.627 125.755 85.0714 125.755C85.3995 125.755 85.69 125.731 85.9429 125.684V127.929C85.3619 128.107 84.7637 128.196 84.1485 128.196C82.0704 128.196 81.0108 127.147 80.9698 125.048V119.07H79.3497V116.896H80.9698V114.168H83.9332ZM92.0436 123.797L94.0944 116.896H97.2731L92.8127 129.713L92.5666 130.298C91.9035 131.747 90.8097 132.472 89.2853 132.472C88.8546 132.472 88.4171 132.407 87.9728 132.277V130.031L88.424 130.042C88.9845 130.042 89.4015 129.956 89.675 129.785C89.9552 129.614 90.174 129.331 90.3312 128.934L90.6798 128.022L86.7936 116.896H89.9826L92.0436 123.797ZM107.783 122.73V127.991H104.706V113.061H110.531C111.652 113.061 112.636 113.266 113.484 113.676C114.338 114.086 114.994 114.671 115.452 115.43C115.91 116.182 116.139 117.04 116.139 118.003C116.139 119.466 115.637 120.622 114.632 121.469C113.634 122.31 112.25 122.73 110.479 122.73H107.783ZM107.783 120.239H110.531C111.344 120.239 111.963 120.047 112.387 119.665C112.817 119.282 113.033 118.735 113.033 118.024C113.033 117.293 112.817 116.701 112.387 116.25C111.956 115.799 111.361 115.566 110.602 115.553H107.783V120.239ZM117.882 122.341C117.882 121.24 118.094 120.259 118.518 119.398C118.942 118.537 119.55 117.87 120.343 117.398C121.143 116.927 122.069 116.691 123.122 116.691C124.619 116.691 125.839 117.149 126.783 118.065C127.733 118.981 128.263 120.225 128.372 121.797L128.392 122.556C128.392 124.258 127.917 125.626 126.967 126.658C126.017 127.683 124.742 128.196 123.142 128.196C121.543 128.196 120.265 127.683 119.308 126.658C118.357 125.632 117.882 124.238 117.882 122.474V122.341ZM120.846 122.556C120.846 123.609 121.044 124.416 121.44 124.976C121.837 125.53 122.404 125.807 123.142 125.807C123.86 125.807 124.421 125.533 124.824 124.986C125.227 124.433 125.429 123.551 125.429 122.341C125.429 121.309 125.227 120.509 124.824 119.941C124.421 119.374 123.853 119.09 123.122 119.09C122.397 119.09 121.837 119.374 121.44 119.941C121.044 120.502 120.846 121.374 120.846 122.556ZM136.872 119.675C136.469 119.62 136.113 119.593 135.806 119.593C134.685 119.593 133.95 119.972 133.601 120.731V127.991H130.638V116.896H133.437L133.519 118.219C134.114 117.2 134.937 116.691 135.99 116.691C136.318 116.691 136.626 116.735 136.913 116.824L136.872 119.675ZM142.788 114.168V116.896H144.685V119.07H142.788V124.607C142.788 125.017 142.867 125.311 143.024 125.489C143.181 125.667 143.482 125.755 143.926 125.755C144.254 125.755 144.545 125.731 144.798 125.684V127.929C144.217 128.107 143.619 128.196 143.003 128.196C140.925 128.196 139.866 127.147 139.825 125.048V119.07H138.205V116.896H139.825V114.168H142.788ZM153.185 127.991C153.048 127.724 152.949 127.393 152.888 126.996C152.17 127.796 151.237 128.196 150.089 128.196C149.002 128.196 148.099 127.881 147.381 127.252C146.671 126.624 146.315 125.831 146.315 124.874C146.315 123.698 146.749 122.795 147.617 122.167C148.492 121.538 149.754 121.22 151.401 121.213H152.765V120.577C152.765 120.064 152.631 119.654 152.365 119.347C152.105 119.039 151.692 118.885 151.124 118.885C150.625 118.885 150.232 119.005 149.945 119.244C149.665 119.483 149.525 119.812 149.525 120.229H146.561C146.561 119.586 146.759 118.991 147.156 118.444C147.552 117.897 148.113 117.47 148.838 117.163C149.562 116.848 150.376 116.691 151.278 116.691C152.645 116.691 153.729 117.036 154.528 117.727C155.335 118.41 155.738 119.374 155.738 120.618V125.427C155.745 126.48 155.892 127.276 156.179 127.816V127.991H153.185ZM150.735 125.93C151.172 125.93 151.575 125.834 151.944 125.643C152.314 125.444 152.587 125.181 152.765 124.853V122.946H151.657C150.174 122.946 149.384 123.459 149.289 124.484L149.278 124.658C149.278 125.027 149.408 125.332 149.668 125.571C149.928 125.81 150.283 125.93 150.735 125.93ZM161.562 127.991H158.589V112.241H161.562V127.991ZM164.587 126.535C164.587 126.063 164.744 125.68 165.058 125.386C165.38 125.092 165.78 124.945 166.258 124.945C166.743 124.945 167.143 125.092 167.458 125.386C167.779 125.68 167.94 126.063 167.94 126.535C167.94 127 167.783 127.379 167.468 127.673C167.154 127.96 166.75 128.104 166.258 128.104C165.773 128.104 165.373 127.96 165.058 127.673C164.744 127.379 164.587 127 164.587 126.535Z" fill="black"/>
<path fill-rule="evenodd" clip-rule="evenodd" d="M108.103 69.678C114.823 73.647 121.426 75.5648 124.525 74.7819C132.297 72.8188 133.011 44.9582 126.998 33.9747C120.984 22.9912 90.0701 18.2039 88.5119 39.9657C87.971 47.5186 91.2075 54.259 95.9892 59.7591L87.4152 98.9193H112.321L108.103 69.678Z" fill="#3FC1C9"/>
<path fill-rule="evenodd" clip-rule="evenodd" d="M129.962 23.6697C129.962 29.1008 125.617 33.5375 120.147 33.8238C117.018 34.77 112.998 35.4647 108.539 35.7576C108.972 37.3527 109.208 39.1648 109.208 41.2126C109.208 43.0207 109.004 44.9383 108.629 46.8854C107.662 45.7592 106.369 45.0242 105.057 45.0242C101.386 45.0242 98.8303 47.9835 98.8303 51.1256C98.8303 55.1133 101.18 57.9981 104.609 58.2288C101.521 64.038 97.2493 68.4127 92.9819 68.4127C84.8764 68.4127 79.1133 57.7936 79.1133 46.3763C79.1133 45.9752 79.1214 45.5767 79.1374 45.1812C76.3934 47.0263 73.8509 49.4448 71.29 51.8808C65.8487 57.0567 60.3246 62.3114 52.6103 62.3114C37.1755 62.3114 31.0457 31.8048 52.6103 31.8048C67.2758 31.8048 74.4897 33.9 80.7067 36.9985C81.9329 33.611 83.8027 30.7629 86.0892 28.7741C86.6389 28.1678 87.4815 27.5877 88.5685 27.0498C89.2345 26.6927 89.9237 26.4018 90.632 26.1831C94.3813 24.8331 99.8115 23.881 105.877 23.6735C107.01 23.6347 108.122 23.6234 109.208 23.6377C109.225 18.0363 113.865 13.5008 119.585 13.5008C125.316 13.5008 129.962 18.0535 129.962 23.6697Z" fill="black"/>
<rect x="-2.49646" y="-2.5" width="152.849" height="149.886" transform="matrix(1 0 -0.00141582 0.999999 23.7429 5.38882)" stroke="#1E2022" stroke-width="5"/>
</svg>
