<svg width="200" height="165" viewBox="0 0 200 165" fill="none" xmlns="http://www.w3.org/2000/svg">
<path d="M53.7942 118.243C53.7942 118.967 53.6518 119.651 53.367 120.293C53.0821 120.928 52.72 121.514 52.2805 122.051C51.8492 122.588 51.3732 123.077 50.8523 123.516C50.3396 123.947 49.8513 124.322 49.3875 124.639C50.0385 124.696 50.6855 124.855 51.3284 125.115C51.9794 125.368 52.5613 125.722 53.074 126.177C53.5948 126.625 54.0139 127.17 54.3313 127.813C54.6569 128.448 54.8196 129.172 54.8196 129.986C54.8196 130.653 54.722 131.255 54.5266 131.792C54.3395 132.321 54.0872 132.798 53.7698 133.221C53.4524 133.636 53.0903 133.994 52.6834 134.295C52.2846 134.596 51.8777 134.844 51.4627 135.04C51.0476 135.235 50.6367 135.377 50.2298 135.467C49.831 135.564 49.477 135.613 49.1678 135.613C48.3865 135.613 47.7355 135.52 47.2146 135.333C46.7019 135.145 46.291 134.917 45.9817 134.649C45.6806 134.372 45.469 134.083 45.347 133.782C45.2249 133.481 45.1638 133.217 45.1638 132.989C45.1638 132.639 45.2371 132.305 45.3836 131.988C45.5382 131.662 45.7416 131.369 45.9939 131.109C46.2462 130.848 46.5392 130.621 46.8728 130.425C47.2065 130.222 47.5524 130.067 47.9104 129.961L48.1668 130.364C47.6541 130.641 47.2757 130.999 47.0315 131.438C46.7874 131.87 46.6653 132.305 46.6653 132.745C46.6653 132.989 46.7141 133.245 46.8118 133.514C46.9176 133.774 47.0722 134.014 47.2757 134.234C47.4873 134.454 47.7477 134.637 48.0569 134.783C48.3743 134.922 48.7446 134.991 49.1678 134.991C49.7862 134.991 50.364 134.877 50.9012 134.649C51.4383 134.413 51.9021 134.091 52.2928 133.685C52.6915 133.27 53.0008 132.785 53.2205 132.232C53.4484 131.679 53.5623 131.08 53.5623 130.438C53.5623 129.778 53.4239 129.196 53.1472 128.692C52.8787 128.187 52.5166 127.764 52.0608 127.422C51.6132 127.072 51.0924 126.808 50.4983 126.629C49.9124 126.45 49.302 126.36 48.6673 126.36C48.4069 126.36 48.1505 126.377 47.8982 126.409C47.6459 126.434 47.4059 126.47 47.178 126.519C46.9583 126.56 46.7589 126.6 46.5799 126.641C46.4008 126.682 46.2625 126.714 46.1648 126.739L46.0428 126.617L47.1658 124.871C47.2553 124.847 47.357 124.818 47.471 124.786C47.5686 124.761 47.6866 124.737 47.825 124.712C47.9633 124.68 48.118 124.655 48.2888 124.639C48.6795 124.403 49.0864 124.106 49.5096 123.748C49.9409 123.382 50.3315 122.963 50.6814 122.491C51.0395 122.011 51.3325 121.473 51.5603 120.879C51.7963 120.285 51.9143 119.638 51.9143 118.938C51.9143 117.758 51.6336 116.867 51.0721 116.265C50.5105 115.663 49.7089 115.362 48.6673 115.362C48.0651 115.362 47.4588 115.492 46.8484 115.752C46.2381 116.005 45.6481 116.395 45.0784 116.924C44.5169 117.453 43.9879 118.121 43.4915 118.926C43.0032 119.732 42.576 120.68 42.2097 121.771C41.8517 122.861 41.5668 124.102 41.3553 125.494C41.1437 126.885 41.0379 128.427 41.0379 130.12C41.0379 130.82 41.0664 131.467 41.1233 132.061C41.1884 132.655 41.282 133.172 41.4041 133.611C41.5343 134.043 41.693 134.38 41.8802 134.625C42.0673 134.869 42.2871 134.991 42.5393 134.991C42.7916 134.991 42.991 134.808 43.1375 134.441C43.2921 134.067 43.406 133.583 43.4793 132.989C43.5607 132.387 43.6095 131.715 43.6258 130.975C43.6502 130.234 43.6624 129.489 43.6624 128.741C43.6624 127.601 43.6461 126.531 43.6136 125.53C43.581 124.521 43.5444 123.622 43.5037 122.833C43.4711 122.043 43.4386 121.384 43.406 120.855C43.3735 120.326 43.3531 119.972 43.345 119.793L44.761 119.366C44.8017 119.431 44.8587 119.626 44.9319 119.952C45.0052 120.277 45.0784 120.709 45.1516 121.246C45.2249 121.775 45.2859 122.393 45.3347 123.101C45.3917 123.801 45.4202 124.558 45.4202 125.372C45.4202 126.747 45.3795 127.955 45.2981 128.997C45.2249 130.031 45.1191 130.93 44.9807 131.695C44.8424 132.452 44.6796 133.082 44.4925 133.587C44.3134 134.091 44.114 134.494 43.8943 134.795C43.6827 135.088 43.4589 135.296 43.2229 135.418C42.9951 135.548 42.7672 135.613 42.5393 135.613C42.0429 135.613 41.5953 135.442 41.1966 135.101C40.8059 134.767 40.4723 134.323 40.1956 133.77C39.9189 133.209 39.7073 132.57 39.5608 131.854C39.4143 131.129 39.3411 130.385 39.3411 129.62C39.3411 128.521 39.4428 127.386 39.6463 126.214C39.8497 125.042 40.1508 123.899 40.5496 122.784C40.9484 121.661 41.4407 120.599 42.0266 119.598C42.6126 118.589 43.288 117.71 44.053 116.961C44.818 116.204 45.6684 115.606 46.6043 115.167C47.5483 114.719 48.5696 114.495 49.6682 114.495C50.2949 114.495 50.8605 114.581 51.365 114.751C51.8777 114.914 52.3131 115.158 52.6712 115.484C53.0292 115.801 53.3059 116.192 53.5013 116.656C53.6966 117.12 53.7942 117.649 53.7942 118.243ZM60.1907 133.611C60.4755 133.611 60.7644 133.538 61.0574 133.392C61.3585 133.245 61.6596 133.017 61.9607 132.708C62.27 132.399 62.5874 132 62.9129 131.512C63.2384 131.015 63.5721 130.425 63.9138 129.742L64.0359 129.485L64.5364 129.864L64.4143 130.12C63.9749 130.991 63.5354 131.736 63.096 132.354C62.6647 132.973 62.2374 133.477 61.8142 133.868C61.3992 134.258 60.9882 134.543 60.5813 134.722C60.1744 134.901 59.7838 134.991 59.4095 134.991C58.8805 134.991 58.4085 134.881 57.9934 134.661C57.5784 134.441 57.2285 134.144 56.9436 133.77C56.6588 133.388 56.4431 132.948 56.2967 132.452C56.142 131.947 56.0647 131.418 56.0647 130.865C56.0647 129.986 56.1868 129.188 56.4309 128.472C56.6669 127.748 56.9843 127.129 57.3831 126.617C57.79 126.104 58.2498 125.705 58.7625 125.42C59.2752 125.136 59.8082 124.993 60.3616 124.993C60.9231 124.993 61.3504 125.136 61.6433 125.42C61.9444 125.705 62.095 126.063 62.095 126.495C62.095 126.91 61.977 127.3 61.741 127.667C61.505 128.025 61.1835 128.379 60.7766 128.729C60.3779 129.07 59.914 129.412 59.385 129.754C58.8561 130.088 58.2986 130.433 57.7127 130.792C57.7696 131.215 57.8673 131.601 58.0056 131.951C58.144 132.293 58.319 132.59 58.5305 132.842C58.7421 133.086 58.9863 133.278 59.263 133.416C59.5397 133.546 59.8489 133.611 60.1907 133.611ZM60.5691 126.861C60.5691 126.535 60.4796 126.279 60.3006 126.092C60.1297 125.905 59.9181 125.811 59.6658 125.811C59.4542 125.811 59.2304 125.888 58.9944 126.043C58.7584 126.189 58.5428 126.43 58.3474 126.763C58.1521 127.089 57.9894 127.508 57.8592 128.021C57.729 128.533 57.6638 129.156 57.6638 129.888V130.169C57.9405 130.022 58.2457 129.831 58.5794 129.595C58.9212 129.351 59.2386 129.083 59.5315 128.79C59.8245 128.497 60.0686 128.187 60.2639 127.862C60.4674 127.528 60.5691 127.195 60.5691 126.861ZM71.4334 131.963C71.4334 132.427 71.4741 132.818 71.5555 133.135C71.6368 133.453 71.7792 133.611 71.9827 133.611C72.1048 133.611 72.235 133.554 72.3733 133.44C72.5198 133.318 72.6866 133.123 72.8738 132.855C73.061 132.586 73.2726 132.24 73.5086 131.817C73.7527 131.386 74.0294 130.861 74.3387 130.242L74.7049 129.485L75.2054 129.864L74.8391 130.621C74.4973 131.304 74.1759 131.919 73.8748 132.464C73.5818 133.001 73.3011 133.457 73.0325 133.831C72.7639 134.205 72.4995 134.494 72.239 134.698C71.9868 134.893 71.7345 134.991 71.4822 134.991C71.2137 134.991 70.9858 134.917 70.7986 134.771C70.6196 134.625 70.469 134.425 70.347 134.173C70.2249 133.912 70.1313 133.615 70.0662 133.282C70.0011 132.94 69.9563 132.578 69.9319 132.195C69.7366 132.586 69.5209 132.952 69.2849 133.294C69.0489 133.628 68.8007 133.921 68.5403 134.173C68.288 134.425 68.0235 134.625 67.7469 134.771C67.4702 134.917 67.1935 134.991 66.9168 134.991C66.5099 134.991 66.1152 134.905 65.7327 134.734C65.3502 134.563 65.0084 134.303 64.7073 133.953C64.4143 133.603 64.1783 133.164 63.9993 132.635C63.8203 132.098 63.7307 131.467 63.7307 130.743C63.7307 129.896 63.8406 129.123 64.0603 128.423C64.2801 127.715 64.5771 127.109 64.9514 126.605C65.3258 126.092 65.7571 125.697 66.2454 125.42C66.7337 125.136 67.2464 124.993 67.7835 124.993C68.109 124.993 68.4101 125.066 68.6868 125.213C68.9635 125.359 69.2036 125.538 69.407 125.75C69.6186 125.953 69.7936 126.173 69.9319 126.409C70.0703 126.637 70.1638 126.832 70.2127 126.995L70.3592 125.811C70.3754 125.656 70.4487 125.526 70.5789 125.42C70.7172 125.315 70.8678 125.233 71.0305 125.176C71.1933 125.111 71.352 125.066 71.5066 125.042C71.6612 125.009 71.7711 124.993 71.8362 124.993C71.9339 124.993 71.999 125.009 72.0315 125.042C72.0641 125.075 72.0804 125.14 72.0804 125.237C72.0804 125.359 72.0437 125.608 71.9705 125.982C71.9054 126.348 71.8321 126.82 71.7508 127.398C71.6775 127.968 71.6043 128.639 71.531 129.412C71.4659 130.185 71.4334 131.036 71.4334 131.963ZM70.0906 128.741C70.0906 128.366 70.0336 128 69.9197 127.642C69.8058 127.276 69.6512 126.954 69.4558 126.678C69.2605 126.393 69.0327 126.165 68.7722 125.994C68.52 125.823 68.2514 125.738 67.9666 125.738C67.6166 125.738 67.2871 125.84 66.9778 126.043C66.6767 126.238 66.4122 126.519 66.1844 126.885C65.9646 127.243 65.7897 127.679 65.6595 128.191C65.5292 128.696 65.4641 129.253 65.4641 129.864C65.4641 131.084 65.6554 132.016 66.0379 132.659C66.4204 133.294 66.929 133.611 67.5638 133.611C67.8404 133.611 68.1253 133.501 68.4182 133.282C68.7194 133.054 68.992 132.732 69.2361 132.317C69.4884 131.894 69.6918 131.382 69.8465 130.779C70.0092 130.177 70.0906 129.498 70.0906 128.741ZM79.7097 132.342C79.6691 132.407 79.608 132.521 79.5266 132.684C79.4534 132.838 79.3557 133.013 79.2337 133.209C79.1197 133.404 78.9814 133.607 78.8186 133.819C78.664 134.03 78.485 134.222 78.2815 134.393C78.0781 134.563 77.8502 134.706 77.5979 134.82C77.3538 134.934 77.0812 134.991 76.7801 134.991C76.5441 134.991 76.2999 134.942 76.0476 134.844C75.7954 134.747 75.5594 134.568 75.3396 134.307C75.128 134.047 74.9531 133.693 74.8147 133.245C74.6764 132.789 74.6072 132.203 74.6072 131.487C74.6072 130.804 74.6316 130.12 74.6805 129.437C74.7293 128.745 74.7862 128.114 74.8513 127.544C74.9246 126.975 74.9938 126.499 75.0589 126.116C75.124 125.734 75.1728 125.502 75.2054 125.42C75.2379 125.347 75.303 125.282 75.4007 125.225C75.4983 125.168 75.6082 125.123 75.7303 125.091C75.8605 125.058 75.9907 125.034 76.1209 125.018C76.2592 125.001 76.3772 124.993 76.4749 124.993C76.6051 124.993 76.7068 125.026 76.7801 125.091C76.8614 125.156 76.9021 125.266 76.9021 125.42C76.9021 125.494 76.8859 125.64 76.8533 125.86C76.8289 126.071 76.7963 126.332 76.7556 126.641C76.715 126.95 76.6702 127.292 76.6214 127.667C76.5807 128.041 76.54 128.423 76.4993 128.814C76.4586 129.196 76.422 129.579 76.3894 129.961C76.365 130.336 76.3528 130.678 76.3528 130.987C76.3528 131.874 76.4464 132.533 76.6336 132.964C76.8289 133.396 77.1463 133.611 77.5857 133.611C77.9601 133.611 78.3385 133.339 78.721 132.793C79.1116 132.248 79.4493 131.455 79.7342 130.413C79.7749 129.974 79.8115 129.506 79.844 129.009C79.8847 128.505 79.9213 128.029 79.9539 127.581C79.9864 127.125 80.0149 126.718 80.0393 126.36C80.0719 126.002 80.1004 125.746 80.1248 125.591C80.1492 125.477 80.2143 125.384 80.3201 125.311C80.4259 125.229 80.5439 125.168 80.6741 125.127C80.8124 125.079 80.9427 125.046 81.0647 125.03C81.1949 125.005 81.2926 124.993 81.3577 124.993C81.496 124.993 81.5896 125.026 81.6385 125.091C81.6954 125.148 81.7239 125.241 81.7239 125.372C81.7239 125.486 81.7117 125.705 81.6873 126.031C81.671 126.348 81.6466 126.723 81.614 127.154C81.5896 127.577 81.5611 128.033 81.5286 128.521C81.496 129.009 81.4635 129.481 81.4309 129.937C81.4065 130.385 81.3821 130.792 81.3577 131.158C81.3414 131.524 81.3333 131.801 81.3333 131.988C81.3333 132.541 81.3618 132.977 81.4187 133.294C81.4838 133.611 81.6222 133.77 81.8338 133.77C81.9884 133.77 82.1552 133.672 82.3343 133.477C82.5214 133.274 82.7208 132.993 82.9324 132.635C83.1521 132.277 83.3881 131.854 83.6404 131.365C83.8927 130.869 84.1653 130.328 84.4583 129.742L84.5804 129.485L85.0808 129.864L84.9588 130.12C84.5681 130.893 84.2223 131.585 83.9212 132.195C83.6282 132.798 83.3474 133.306 83.0789 133.721C82.8103 134.136 82.5377 134.454 82.261 134.673C81.9843 134.885 81.6751 134.991 81.3333 134.991C81.0159 134.991 80.7514 134.93 80.5398 134.808C80.3364 134.686 80.1736 134.511 80.0515 134.283C79.9295 134.055 79.84 133.778 79.783 133.453C79.7342 133.127 79.7097 132.757 79.7097 132.342ZM84.5437 130.987C84.5437 130.124 84.5763 129.258 84.6414 128.387C84.7065 127.516 84.7919 126.633 84.8977 125.738H83.7869L83.9212 124.993H84.9954C85.1093 124.163 85.2233 123.333 85.3372 122.503C85.4593 121.665 85.5691 120.827 85.6668 119.988H86.9119C86.8956 120.167 86.8712 120.428 86.8387 120.77C86.8142 121.103 86.7817 121.494 86.741 121.941C86.7084 122.381 86.6759 122.865 86.6433 123.394C86.6108 123.915 86.5782 124.448 86.5457 124.993H88.9138L88.7918 125.738H86.4969C86.4643 126.202 86.4358 126.657 86.4114 127.105C86.387 127.553 86.3626 127.98 86.3382 128.387C86.3219 128.785 86.3097 129.156 86.3015 129.498C86.2934 129.831 86.2893 130.12 86.2893 130.364C86.2893 130.983 86.3056 131.5 86.3382 131.915C86.3789 132.33 86.4358 132.663 86.5091 132.916C86.5904 133.168 86.6881 133.347 86.802 133.453C86.9241 133.558 87.0624 133.611 87.2171 133.611C87.4205 133.611 87.6443 133.51 87.8885 133.306C88.1407 133.095 88.4012 132.814 88.6697 132.464C88.9383 132.114 89.2109 131.707 89.4876 131.243C89.7643 130.771 90.0328 130.271 90.2932 129.742L90.4153 129.485L90.9158 129.864L90.7937 130.12C90.4194 130.877 90.045 131.556 89.6707 132.159C89.3045 132.761 88.9423 133.274 88.5843 133.697C88.2262 134.112 87.8763 134.433 87.5345 134.661C87.1927 134.881 86.8631 134.991 86.5457 134.991C86.2283 134.991 85.9435 134.917 85.6912 134.771C85.4471 134.625 85.2395 134.393 85.0686 134.075C84.8977 133.75 84.7675 133.335 84.678 132.83C84.5885 132.326 84.5437 131.711 84.5437 130.987ZM91.1966 125.335C91.2291 125.254 91.3064 125.188 91.4285 125.14C91.5506 125.091 91.6808 125.058 91.8191 125.042C91.9575 125.018 92.0877 125.005 92.2097 125.005C92.3318 124.997 92.4132 124.993 92.4539 124.993C92.576 124.993 92.6533 125.026 92.6858 125.091C92.7265 125.148 92.7469 125.241 92.7469 125.372C92.7469 125.437 92.7265 125.583 92.6858 125.811C92.6451 126.031 92.5922 126.307 92.5271 126.641C92.4702 126.975 92.4051 127.353 92.3318 127.776C92.2667 128.2 92.2016 128.635 92.1365 129.083C92.0795 129.53 92.0307 129.986 91.99 130.45C91.9493 130.905 91.929 131.337 91.929 131.744C91.929 132.452 92.047 132.985 92.283 133.343C92.519 133.693 92.7916 133.868 93.1009 133.868C93.638 133.868 94.114 133.473 94.5291 132.684C94.9441 131.894 95.3754 130.739 95.823 129.217V125.665C95.823 125.526 95.8841 125.416 96.0061 125.335C96.1363 125.245 96.2828 125.176 96.4456 125.127C96.6083 125.079 96.767 125.046 96.9217 125.03C97.0763 125.005 97.1861 124.993 97.2513 124.993C97.5035 124.993 97.6297 125.119 97.6297 125.372C97.6297 125.461 97.6215 125.612 97.6053 125.823C97.5971 126.027 97.5849 126.271 97.5686 126.556C97.5524 126.832 97.5361 127.142 97.5198 127.483C97.5117 127.817 97.5076 128.155 97.5076 128.497V133.465C97.6541 133.278 97.8372 133.029 98.0569 132.72C98.2848 132.411 98.5167 132.081 98.7527 131.731C98.9969 131.382 99.2288 131.032 99.4485 130.682C99.6764 130.332 99.8595 130.018 99.9978 129.742L100.132 129.485L100.633 129.864L100.498 130.12C100.327 130.462 100.124 130.816 99.888 131.182C99.652 131.548 99.3997 131.919 99.1311 132.293C98.8707 132.659 98.5981 133.025 98.3133 133.392C98.0366 133.75 97.768 134.091 97.5076 134.417V137.115C97.5076 137.863 97.4384 138.498 97.3001 139.019C97.1699 139.548 96.9868 139.975 96.7508 140.301C96.5148 140.634 96.2381 140.875 95.9207 141.021C95.6033 141.167 95.2574 141.241 94.8831 141.241C94.6471 141.241 94.4274 141.204 94.2239 141.131C94.0286 141.058 93.8577 140.948 93.7112 140.801C93.5647 140.663 93.4508 140.492 93.3694 140.289C93.288 140.093 93.2473 139.869 93.2473 139.617C93.2473 139.251 93.3124 138.885 93.4427 138.519C93.581 138.152 93.7682 137.774 94.0042 137.383C94.2483 136.993 94.5291 136.59 94.8465 136.175C95.1638 135.768 95.5056 135.341 95.8719 134.893V131.194C95.6684 131.748 95.4487 132.26 95.2127 132.732C94.9767 133.196 94.7203 133.595 94.4436 133.929C94.1669 134.262 93.8699 134.523 93.5525 134.71C93.2351 134.897 92.8933 134.991 92.5271 134.991C92.2667 134.991 91.9982 134.95 91.7215 134.869C91.4529 134.779 91.2006 134.62 90.9646 134.393C90.7368 134.165 90.5496 133.86 90.4031 133.477C90.2566 133.086 90.1834 132.59 90.1834 131.988C90.1834 131.304 90.2241 130.608 90.3055 129.9C90.3868 129.192 90.4804 128.533 90.5862 127.923C90.7001 127.313 90.8141 126.779 90.928 126.324C91.0419 125.86 91.1315 125.53 91.1966 125.335ZM94.7488 140.496C94.879 140.496 95.0092 140.468 95.1394 140.411C95.2778 140.362 95.3999 140.244 95.5056 140.057C95.6114 139.869 95.6969 139.593 95.762 139.227C95.8352 138.86 95.8719 138.364 95.8719 137.737V135.894C95.5952 136.236 95.3388 136.565 95.1028 136.883C94.8749 137.208 94.6756 137.522 94.5047 137.823C94.3338 138.132 94.1995 138.429 94.1018 138.714C94.0042 138.999 93.9554 139.275 93.9554 139.544C93.9554 139.796 94.0245 140.016 94.1629 140.203C94.3012 140.398 94.4965 140.496 94.7488 140.496ZM112.4 132.11C112.311 132.745 112.18 133.286 112.01 133.733C111.839 134.173 111.631 134.535 111.387 134.82C111.143 135.097 110.862 135.296 110.545 135.418C110.235 135.548 109.894 135.613 109.519 135.613C108.99 135.613 108.494 135.459 108.03 135.149C107.574 134.84 107.18 134.38 106.846 133.77C106.512 133.16 106.248 132.403 106.053 131.5C105.865 130.596 105.772 129.55 105.772 128.362C105.772 127.117 105.89 125.909 106.126 124.737C106.37 123.565 106.712 122.466 107.151 121.441C107.599 120.416 108.132 119.48 108.75 118.633C109.377 117.779 110.073 117.05 110.838 116.448C111.611 115.838 112.445 115.366 113.34 115.032C114.235 114.69 115.171 114.52 116.148 114.52C116.986 114.52 117.751 114.646 118.443 114.898C119.134 115.15 119.728 115.5 120.225 115.948C120.721 116.395 121.104 116.924 121.372 117.535C121.641 118.145 121.775 118.804 121.775 119.512C121.775 120.367 121.657 121.164 121.421 121.905C121.185 122.637 120.856 123.309 120.432 123.919C120.017 124.529 119.521 125.075 118.943 125.555C118.365 126.035 117.735 126.442 117.051 126.775C116.376 127.109 115.659 127.369 114.903 127.557C114.154 127.736 113.393 127.837 112.62 127.862C112.595 128.879 112.567 129.738 112.534 130.438C112.51 131.129 112.465 131.687 112.4 132.11ZM110.276 126.995C110.317 127.011 110.366 127.028 110.423 127.044C110.471 127.06 110.528 127.077 110.594 127.093C110.667 127.109 110.752 127.125 110.85 127.142C110.834 126.124 110.813 125.193 110.789 124.346C110.773 123.492 110.752 122.747 110.728 122.112C110.695 121.372 110.667 120.704 110.642 120.11C110.699 120.062 110.764 120.021 110.838 119.988C110.903 119.956 110.98 119.927 111.07 119.903C111.159 119.878 111.269 119.866 111.399 119.866C111.774 119.866 112.075 119.935 112.303 120.074C112.53 120.204 112.644 120.428 112.644 120.745C112.644 122.088 112.644 123.292 112.644 124.358C112.644 125.424 112.636 126.385 112.62 127.239C113.686 127.239 114.65 127.036 115.513 126.629C116.384 126.222 117.124 125.681 117.735 125.005C118.345 124.322 118.817 123.536 119.151 122.649C119.484 121.762 119.651 120.835 119.651 119.866C119.651 119.248 119.566 118.662 119.395 118.108C119.232 117.547 118.98 117.059 118.638 116.644C118.296 116.22 117.865 115.887 117.344 115.643C116.831 115.39 116.225 115.264 115.525 115.264C114.817 115.264 114.117 115.398 113.426 115.667C112.742 115.936 112.087 116.338 111.46 116.876C110.842 117.413 110.268 118.08 109.739 118.877C109.218 119.675 108.762 120.607 108.372 121.673C107.989 122.739 107.688 123.935 107.469 125.262C107.257 126.58 107.151 128.033 107.151 129.62C107.151 130.303 107.184 130.971 107.249 131.622C107.322 132.265 107.44 132.838 107.603 133.343C107.766 133.839 107.981 134.238 108.25 134.539C108.526 134.84 108.868 134.991 109.275 134.991C109.495 134.991 109.702 134.946 109.898 134.856C110.093 134.767 110.264 134.584 110.41 134.307C110.557 134.022 110.675 133.619 110.764 133.099C110.854 132.57 110.899 131.866 110.899 130.987C110.899 130.433 110.895 129.888 110.887 129.351C110.878 128.806 110.874 128.277 110.874 127.764C110.752 127.748 110.646 127.728 110.557 127.703C110.467 127.679 110.39 127.658 110.325 127.642C110.252 127.618 110.191 127.593 110.142 127.569L110.276 126.995ZM131.004 129.864L130.869 130.12C130.593 130.674 130.222 131.117 129.759 131.451C129.303 131.776 128.806 131.988 128.269 132.085C128.123 132.501 127.932 132.887 127.696 133.245C127.468 133.595 127.203 133.9 126.902 134.161C126.609 134.421 126.276 134.625 125.901 134.771C125.535 134.917 125.136 134.991 124.705 134.991C124.078 134.991 123.513 134.861 123.008 134.6C122.512 134.332 122.088 133.973 121.739 133.526C121.389 133.07 121.12 132.541 120.933 131.939C120.746 131.329 120.652 130.678 120.652 129.986C120.652 129.384 120.721 128.838 120.86 128.35C120.998 127.854 121.173 127.414 121.385 127.032C121.596 126.641 121.832 126.303 122.093 126.019C122.353 125.726 122.609 125.486 122.862 125.298C123.114 125.111 123.342 124.973 123.545 124.883C123.757 124.786 123.915 124.737 124.021 124.737L124.18 125.164C123.846 125.408 123.549 125.75 123.289 126.189C123.061 126.564 122.853 127.06 122.666 127.679C122.487 128.297 122.398 129.066 122.398 129.986C122.398 130.547 122.451 131.093 122.556 131.622C122.662 132.151 122.817 132.619 123.02 133.025C123.224 133.432 123.472 133.758 123.765 134.002C124.066 134.246 124.404 134.368 124.778 134.368C125.291 134.368 125.714 134.165 126.048 133.758C126.389 133.343 126.642 132.777 126.804 132.061C126.381 131.972 125.978 131.805 125.596 131.561C125.213 131.316 124.876 131.015 124.583 130.657C124.29 130.291 124.054 129.872 123.875 129.4C123.704 128.928 123.618 128.415 123.618 127.862C123.618 127.406 123.675 127.007 123.789 126.666C123.911 126.316 124.07 126.027 124.265 125.799C124.461 125.563 124.685 125.388 124.937 125.274C125.197 125.152 125.47 125.091 125.755 125.091C126.088 125.091 126.43 125.188 126.78 125.384C127.13 125.571 127.447 125.856 127.732 126.238C128.017 126.613 128.249 127.085 128.428 127.654C128.607 128.224 128.697 128.887 128.697 129.644C128.697 129.929 128.68 130.21 128.648 130.486C128.615 130.763 128.566 131.032 128.501 131.292C128.892 131.178 129.246 130.995 129.563 130.743C129.889 130.49 130.157 130.157 130.369 129.742L130.503 129.485L131.004 129.864ZM124.424 127.764C124.424 128.244 124.489 128.688 124.619 129.095C124.758 129.494 124.941 129.848 125.169 130.157C125.397 130.458 125.661 130.71 125.962 130.914C126.263 131.117 126.585 131.259 126.927 131.341C126.967 131.113 126.992 130.877 127 130.633C127.016 130.381 127.024 130.124 127.024 129.864C127.024 129.286 126.979 128.765 126.89 128.301C126.8 127.829 126.682 127.431 126.536 127.105C126.389 126.771 126.219 126.515 126.023 126.336C125.828 126.157 125.629 126.067 125.425 126.067C125.148 126.067 124.912 126.218 124.717 126.519C124.522 126.812 124.424 127.227 124.424 127.764ZM130.393 129.742L130.515 129.485C130.637 129.241 130.747 128.989 130.845 128.729C130.951 128.468 131.04 128.224 131.114 127.996C131.187 127.76 131.244 127.553 131.284 127.374C131.325 127.186 131.354 127.044 131.37 126.946C131.158 126.922 130.955 126.869 130.76 126.788C130.564 126.706 130.393 126.596 130.247 126.458C130.1 126.32 129.986 126.157 129.905 125.97C129.816 125.783 129.771 125.571 129.771 125.335C129.771 125.148 129.803 124.981 129.868 124.834C129.934 124.688 130.023 124.566 130.137 124.468C130.243 124.371 130.365 124.297 130.503 124.249C130.633 124.192 130.772 124.163 130.918 124.163C131.114 124.163 131.284 124.204 131.431 124.285C131.577 124.367 131.699 124.476 131.797 124.615C131.895 124.745 131.968 124.9 132.017 125.079C132.066 125.25 132.09 125.429 132.09 125.616C132.318 125.616 132.562 125.583 132.823 125.518C133.091 125.453 133.36 125.384 133.628 125.311C133.897 125.229 134.161 125.156 134.422 125.091C134.682 125.026 134.922 124.993 135.142 124.993C135.329 124.993 135.48 125.034 135.594 125.115C135.707 125.188 135.764 125.315 135.764 125.494C135.764 125.624 135.724 125.84 135.642 126.141C135.569 126.442 135.476 126.792 135.362 127.19C135.248 127.589 135.122 128.025 134.983 128.497C134.853 128.96 134.731 129.432 134.617 129.913C134.503 130.385 134.405 130.844 134.324 131.292C134.251 131.74 134.214 132.138 134.214 132.488C134.214 132.928 134.263 133.225 134.361 133.379C134.458 133.534 134.633 133.611 134.886 133.611C134.991 133.611 135.122 133.567 135.276 133.477C135.439 133.379 135.634 133.196 135.862 132.928C136.09 132.651 136.359 132.26 136.668 131.756C136.985 131.243 137.351 130.572 137.766 129.742L137.888 129.485L138.389 129.864L138.267 130.12C137.779 131.097 137.343 131.898 136.961 132.525C136.578 133.152 136.224 133.648 135.899 134.014C135.581 134.38 135.28 134.637 134.995 134.783C134.711 134.922 134.426 134.991 134.141 134.991C133.661 134.991 133.27 134.808 132.969 134.441C132.668 134.075 132.517 133.51 132.517 132.745C132.517 132.33 132.574 131.898 132.688 131.451C132.802 131.003 132.945 130.56 133.116 130.12C133.286 129.673 133.478 129.233 133.689 128.802C133.901 128.37 134.1 127.964 134.287 127.581C134.483 127.19 134.658 126.828 134.812 126.495C134.967 126.161 135.077 125.868 135.142 125.616L135.069 125.542C134.938 125.542 134.763 125.612 134.544 125.75C134.324 125.888 134.076 126.047 133.799 126.226C133.531 126.397 133.242 126.56 132.932 126.714C132.623 126.869 132.31 126.963 131.992 126.995C131.976 127.109 131.94 127.276 131.883 127.496C131.834 127.715 131.765 127.959 131.675 128.228C131.586 128.497 131.484 128.773 131.37 129.058C131.256 129.343 131.138 129.612 131.016 129.864L130.894 130.12L130.393 129.742ZM130.991 124.847C130.918 124.847 130.857 124.871 130.808 124.92C130.76 124.969 130.735 125.026 130.735 125.091C130.735 125.188 130.76 125.274 130.808 125.347C130.857 125.412 130.918 125.469 130.991 125.518C131.065 125.559 131.138 125.591 131.211 125.616C131.293 125.632 131.362 125.64 131.419 125.64C131.419 125.412 131.382 125.225 131.309 125.079C131.236 124.924 131.13 124.847 130.991 124.847ZM137.84 130.987C137.84 130.124 137.872 129.258 137.937 128.387C138.002 127.516 138.088 126.633 138.194 125.738H137.083L137.217 124.993H138.291C138.405 124.163 138.519 123.333 138.633 122.503C138.755 121.665 138.865 120.827 138.963 119.988H140.208C140.192 120.167 140.167 120.428 140.135 120.77C140.11 121.103 140.078 121.494 140.037 121.941C140.004 122.381 139.972 122.865 139.939 123.394C139.907 123.915 139.874 124.448 139.842 124.993H142.21L142.088 125.738H139.793C139.76 126.202 139.732 126.657 139.707 127.105C139.683 127.553 139.658 127.98 139.634 128.387C139.618 128.785 139.606 129.156 139.597 129.498C139.589 129.831 139.585 130.12 139.585 130.364C139.585 130.983 139.602 131.5 139.634 131.915C139.675 132.33 139.732 132.663 139.805 132.916C139.886 133.168 139.984 133.347 140.098 133.453C140.22 133.558 140.358 133.611 140.513 133.611C140.716 133.611 140.94 133.51 141.184 133.306C141.437 133.095 141.697 132.814 141.966 132.464C142.234 132.114 142.507 131.707 142.783 131.243C143.06 130.771 143.329 130.271 143.589 129.742L143.711 129.485L144.212 129.864L144.09 130.12C143.715 130.877 143.341 131.556 142.967 132.159C142.6 132.761 142.238 133.274 141.88 133.697C141.522 134.112 141.172 134.433 140.83 134.661C140.489 134.881 140.159 134.991 139.842 134.991C139.524 134.991 139.239 134.917 138.987 134.771C138.743 134.625 138.535 134.393 138.365 134.075C138.194 133.75 138.063 133.335 137.974 132.83C137.884 132.326 137.84 131.711 137.84 130.987ZM151.121 131.963C151.121 132.427 151.162 132.818 151.243 133.135C151.324 133.453 151.467 133.611 151.67 133.611C151.792 133.611 151.922 133.554 152.061 133.44C152.207 133.318 152.374 133.123 152.561 132.855C152.748 132.586 152.96 132.24 153.196 131.817C153.44 131.386 153.717 130.861 154.026 130.242L154.392 129.485L154.893 129.864L154.527 130.621C154.185 131.304 153.863 131.919 153.562 132.464C153.269 133.001 152.989 133.457 152.72 133.831C152.451 134.205 152.187 134.494 151.927 134.698C151.674 134.893 151.422 134.991 151.17 134.991C150.901 134.991 150.673 134.917 150.486 134.771C150.307 134.625 150.157 134.425 150.034 134.173C149.912 133.912 149.819 133.615 149.754 133.282C149.689 132.94 149.644 132.578 149.619 132.195C149.424 132.586 149.208 132.952 148.972 133.294C148.736 133.628 148.488 133.921 148.228 134.173C147.976 134.425 147.711 134.625 147.434 134.771C147.158 134.917 146.881 134.991 146.604 134.991C146.197 134.991 145.803 134.905 145.42 134.734C145.038 134.563 144.696 134.303 144.395 133.953C144.102 133.603 143.866 133.164 143.687 132.635C143.508 132.098 143.418 131.467 143.418 130.743C143.418 129.896 143.528 129.123 143.748 128.423C143.968 127.715 144.265 127.109 144.639 126.605C145.013 126.092 145.445 125.697 145.933 125.42C146.421 125.136 146.934 124.993 147.471 124.993C147.796 124.993 148.098 125.066 148.374 125.213C148.651 125.359 148.891 125.538 149.095 125.75C149.306 125.953 149.481 126.173 149.619 126.409C149.758 126.637 149.851 126.832 149.9 126.995L150.047 125.811C150.063 125.656 150.136 125.526 150.266 125.42C150.405 125.315 150.555 125.233 150.718 125.176C150.881 125.111 151.039 125.066 151.194 125.042C151.349 125.009 151.459 124.993 151.524 124.993C151.621 124.993 151.686 125.009 151.719 125.042C151.752 125.075 151.768 125.14 151.768 125.237C151.768 125.359 151.731 125.608 151.658 125.982C151.593 126.348 151.52 126.82 151.438 127.398C151.365 127.968 151.292 128.639 151.219 129.412C151.153 130.185 151.121 131.036 151.121 131.963ZM149.778 128.741C149.778 128.366 149.721 128 149.607 127.642C149.493 127.276 149.339 126.954 149.143 126.678C148.948 126.393 148.72 126.165 148.46 125.994C148.207 125.823 147.939 125.738 147.654 125.738C147.304 125.738 146.975 125.84 146.665 126.043C146.364 126.238 146.1 126.519 145.872 126.885C145.652 127.243 145.477 127.679 145.347 128.191C145.217 128.696 145.152 129.253 145.152 129.864C145.152 131.084 145.343 132.016 145.725 132.659C146.108 133.294 146.616 133.611 147.251 133.611C147.528 133.611 147.813 133.501 148.106 133.282C148.407 133.054 148.679 132.732 148.924 132.317C149.176 131.894 149.379 131.382 149.534 130.779C149.697 130.177 149.778 129.498 149.778 128.741ZM157.017 133.44C157.163 133.44 157.33 133.347 157.517 133.16C157.713 132.964 157.92 132.7 158.14 132.366C158.36 132.033 158.592 131.642 158.836 131.194C159.08 130.747 159.332 130.263 159.593 129.742L159.715 129.485L160.215 129.864L160.093 130.12C159.662 130.983 159.275 131.723 158.933 132.342C158.6 132.952 158.286 133.457 157.993 133.855C157.7 134.246 157.42 134.535 157.151 134.722C156.891 134.901 156.622 134.991 156.345 134.991C155.979 134.991 155.662 134.873 155.393 134.637C155.133 134.393 154.913 133.99 154.734 133.428C154.563 132.859 154.437 132.11 154.356 131.182C154.266 130.254 154.221 129.107 154.221 127.74C154.221 125.803 154.303 124.143 154.466 122.759C154.628 121.368 154.848 120.228 155.125 119.341C155.41 118.446 155.735 117.791 156.101 117.376C156.476 116.953 156.866 116.741 157.273 116.741C157.517 116.741 157.721 116.843 157.884 117.046C158.054 117.242 158.14 117.6 158.14 118.121C158.14 118.528 158.107 118.991 158.042 119.512C157.977 120.033 157.892 120.591 157.786 121.185C157.68 121.779 157.554 122.397 157.408 123.04C157.261 123.675 157.106 124.31 156.944 124.944C156.781 125.571 156.614 126.189 156.443 126.8C156.272 127.402 156.105 127.968 155.943 128.497C155.991 129.498 156.044 130.32 156.101 130.962C156.166 131.597 156.24 132.098 156.321 132.464C156.411 132.83 156.512 133.086 156.626 133.233C156.74 133.371 156.87 133.44 157.017 133.44ZM157.346 118.414C157.346 118.243 157.326 118.108 157.285 118.011C157.245 117.913 157.18 117.864 157.09 117.864C157.001 117.864 156.911 117.99 156.822 118.243C156.732 118.495 156.643 118.837 156.553 119.268C156.472 119.699 156.394 120.2 156.321 120.77C156.256 121.339 156.195 121.945 156.138 122.588C156.081 123.223 156.036 123.874 156.004 124.542C155.971 125.209 155.951 125.852 155.943 126.47C156.138 125.754 156.317 125.022 156.48 124.273C156.651 123.516 156.801 122.784 156.931 122.076C157.062 121.368 157.163 120.7 157.237 120.074C157.31 119.439 157.346 118.886 157.346 118.414Z" fill="black"/>
<path fill-rule="evenodd" clip-rule="evenodd" d="M107.068 78.1802C113.011 81.6902 118.85 83.3861 121.591 82.6937C128.464 80.9577 129.096 56.3197 123.778 46.6066C118.46 36.8935 91.1215 32.6599 89.7435 51.9046C89.2653 58.5839 92.1274 64.5447 96.3561 69.4086L88.7737 104.039H110.799L107.068 78.1802Z" fill="#F0F5F9"/>
<path fill-rule="evenodd" clip-rule="evenodd" d="M126.4 37.4935C126.4 42.2964 122.557 46.2199 117.72 46.4732C114.953 47.3099 111.398 47.9242 107.455 48.1832C107.837 49.5938 108.045 51.1964 108.045 53.0072C108.045 54.6063 107.865 56.3021 107.534 58.024C106.679 57.028 105.535 56.3781 104.375 56.3781C101.128 56.3781 98.8685 58.9951 98.8685 61.7737C98.8685 65.3001 100.946 67.8513 103.979 68.0553C101.248 73.1926 97.4703 77.0612 93.6966 77.0612C86.5286 77.0612 81.432 67.6704 81.432 57.5737C81.432 57.219 81.4392 56.8666 81.4534 56.5169C79.0268 58.1485 76.7784 60.2873 74.5137 62.4415L74.5137 62.4416C69.7017 67.0188 64.8166 71.6656 57.9946 71.6656C44.3451 71.6656 38.9243 44.6876 57.9946 44.6876C70.9638 44.6876 77.3433 46.5406 82.8412 49.2806C83.9256 46.2849 85.5791 43.7663 87.6011 42.0075C88.0873 41.4713 88.8324 40.9583 89.7936 40.4827C90.3826 40.1668 90.9921 39.9096 91.6185 39.7162C94.9342 38.5224 99.7362 37.6804 105.1 37.4968C106.102 37.4626 107.086 37.4525 108.046 37.4652C108.061 32.5117 112.164 28.5008 117.223 28.5008C122.291 28.5008 126.4 32.527 126.4 37.4935Z" fill="black"/>
<rect x="5.17515" y="4.82583" width="150.17" height="146.959" transform="matrix(0.999415 -0.0341992 0.0356141 0.999366 15.5666 7.32028)" stroke="#F0F5F9" stroke-width="10"/>
<rect x="-3.3733" y="-3.61748" width="154.849" height="151.886" transform="matrix(0.999415 0.0341992 -0.0356141 0.999366 27.1363 8.01959)" stroke="#1E2022" stroke-width="7"/>
</svg>
