<svg width="82" height="76" viewBox="0 0 82 76" fill="none" xmlns="http://www.w3.org/2000/svg">
<path fill-rule="evenodd" clip-rule="evenodd" d="M61.4269 49.6794C67.3696 53.1894 73.2086 54.8853 75.9495 54.1929C82.8225 52.4569 83.4544 27.8189 78.1365 18.1058C72.8186 8.39269 45.48 4.15909 44.102 23.4038C43.6237 30.0831 46.4858 36.0439 50.7145 40.9078L43.1321 75.5385H65.1571L61.4269 49.6794Z" fill="#3FC1C9"/>
<path fill-rule="evenodd" clip-rule="evenodd" d="M80.758 8.99267C80.758 13.7956 76.9154 17.7191 72.0784 17.9724C69.3113 18.8091 65.756 19.4234 61.8131 19.6824C62.1959 21.0931 62.4039 22.6956 62.4039 24.5065C62.4039 26.1055 62.2238 27.8013 61.8922 29.5232C61.0371 28.5272 59.8937 27.8773 58.7331 27.8773C55.4867 27.8773 53.2269 30.4943 53.2269 33.2729C53.2269 36.7993 55.3045 39.3505 58.3373 39.5545C55.6062 44.6918 51.8288 48.5604 48.055 48.5604C40.8871 48.5604 35.7905 39.1697 35.7905 29.0729C35.7905 28.7182 35.7976 28.3658 35.8118 28.0161C33.3853 29.6477 31.1368 31.7865 28.8722 33.9407L28.8721 33.9408C24.0602 38.518 19.175 43.1649 12.353 43.1649C-1.29651 43.1649 -6.71729 16.1868 12.353 16.1868C25.3222 16.1868 31.7017 18.0398 37.1996 20.7798C38.284 17.7841 39.9375 15.2655 41.9595 13.5067C42.4457 12.9705 43.1908 12.4575 44.152 11.9819C44.741 11.666 45.3505 11.4088 45.9769 11.2154C49.2926 10.0216 54.0947 9.17959 59.4586 8.99604C60.4604 8.96176 61.4442 8.95173 62.4039 8.96437C62.4195 4.01087 66.5222 0 71.5809 0C76.6493 0 80.758 4.02616 80.758 8.99267Z" fill="white"/>
</svg>
